# xmcd
#
# Track frame offsets:
# 150
# 19581
# 35627
# 52956
# 68387
# 85408
# 105179
# 121538
# 136321
# 152976
# 171836
# 188080
#
# Disc length: 2804 seconds
#
#
# Revision: 0
# Processed by: cddbd v1.5PL3 Copyright (c) Steve Scherf et al.
# Submitted via: FreeRIP 2.60 
#
DISCID=8b0af20c
DTITLE=Carolyn Dawn Johnson - Dress Rehearsal
DYEAR=2004
DGENRE=Country
TTITLE0=Dress Rehearsal
TTITLE1=He's Mine
TTITLE2=Simple Life
TTITLE3=Die Of A Broken Heart
TTITLE4=We Talked
TTITLE5=God Doesn't Make Mistakes
TTITLE6=Squeezin' The Love Outta You
TTITLE7=Head Over High Heels
TTITLE8=My Little Secret
TTITLE9=Just Another Plane
TTITLE10=Life As We Know It
TTITLE11=I'll Let You Go
EXTD=
EXTT0=
EXTT1=
EXTT2=
EXTT3=
EXTT4=
EXTT5=
EXTT6=
EXTT7=
EXTT8=
EXTT9=
EXTT10=
EXTT11=
PLAYORDER=
